<?xml version="1.0" standalone="no"?>
<!DOCTYPE svg PUBLIC "-//W3C//DTD SVG 20010904//EN"
 "http://www.w3.org/TR/2001/REC-SVG-20010904/DTD/svg10.dtd">
<svg version="1.0" xmlns="http://www.w3.org/2000/svg"
 width="192.000000pt" height="192.000000pt" viewBox="0 0 192.000000 192.000000"
 preserveAspectRatio="xMidYMid meet">

<g transform="translate(0.000000,192.000000) scale(0.100000,-0.100000)"
fill="#000000" stroke="none">
<path d="M813 1866 c-102 -20 -167 -42 -261 -92 -75 -39 -207 -132 -199 -140
2 -2 111 32 242 76 132 44 250 80 263 80 36 0 79 -50 98 -116 l17 -59 17 40
c23 53 54 79 93 79 18 -1 155 -49 306 -108 151 -58 276 -104 279 -101 9 8
-104 120 -178 177 -83 63 -204 122 -306 148 -103 27 -275 34 -371 16z"/>
<path d="M678 1576 c-44 -89 -54 -133 -38 -180 20 -62 79 -84 129 -49 l24 16
-7 -51 c-6 -44 -4 -52 9 -52 46 0 85 62 64 101 -8 16 -6 19 9 19 11 0 22 8 25
18 2 9 14 40 25 69 21 51 21 51 1 77 -19 24 -168 106 -193 106 -6 0 -28 -33
-48 -74z"/>
<path d="M1113 1443 c-113 -127 -110 -121 -82 -132 19 -8 28 -5 42 12 17 20
21 20 60 6 36 -12 42 -18 45 -46 3 -30 34 -55 49 -39 3 3 8 63 11 132 4 115 3
128 -13 141 -11 7 -22 13 -26 13 -4 0 -42 -39 -86 -87z m77 -38 c0 -48 -11
-56 -46 -31 -18 14 -18 15 10 45 17 17 31 31 33 31 2 0 3 -20 3 -45z"/>
<path d="M371 1467 c-17 -8 -31 -32 -47 -77 -21 -64 -22 -65 -33 -37 -6 15
-14 39 -17 52 -7 29 -5 28 -38 15 l-25 -9 40 -118 c22 -65 44 -121 47 -124 4
-4 17 -3 28 1 20 8 21 12 11 49 -17 64 1 73 57 28 50 -42 46 -40 81 -27 l27
10 -63 51 c-35 28 -65 56 -67 63 -2 8 6 38 18 67 28 76 27 80 -19 56z"/>
<path d="M1510 1448 c-14 -7 -35 -33 -48 -58 -19 -37 -23 -56 -19 -105 5 -70
68 -232 88 -227 34 8 160 76 193 104 62 51 92 139 65 190 -6 11 -26 26 -45 34
-31 13 -39 13 -66 -1 -32 -15 -47 -9 -48 21 0 36 -79 63 -120 42z"/>
<path d="M92 1138 c-35 -246 10 -448 141 -643 47 -69 173 -202 183 -192 6 6
-292 896 -305 910 -4 4 -13 -29 -19 -75z"/>
<path d="M1818 1175 c-14 -24 -349 -897 -345 -901 10 -11 168 151 217 222 122
177 180 413 148 609 -8 44 -16 76 -20 70z"/>
<path d="M987 1046 c-53 -19 -73 -40 -110 -115 -29 -60 -32 -74 -31 -156 1
-98 25 -184 100 -356 l37 -86 96 44 c220 98 306 161 360 263 60 111 51 219
-21 273 -53 39 -134 39 -189 -2 l-28 -21 -11 40 c-14 54 -63 107 -108 120 -46
12 -48 12 -95 -4z"/>
<path d="M655 1019 c-4 -11 -25 -52 -47 -91 -60 -106 -88 -189 -88 -259 0 -69
25 -144 40 -118 10 17 180 455 180 462 0 5 -58 27 -71 27 -4 0 -11 -9 -14 -21z"/>
<path d="M720 247 l-144 -51 32 -13 c146 -60 335 -85 472 -64 109 17 157 31
140 41 -14 8 -324 129 -345 135 -5 1 -75 -20 -155 -48z"/>
</g>
</svg>
